<svg width="25" height="24" viewBox="0 0 25 24" fill="none" xmlns="http://www.w3.org/2000/svg">
<path d="M21.7619 7.71429H19.1905V2.57143C19.1905 1.88944 18.9196 1.23539 18.4373 0.753154C17.9551 0.270918 17.301 0 16.6191 0H2.90477C2.22279 0 1.56873 0.270918 1.0865 0.753154C0.604261 1.23539 0.333344 1.88944 0.333344 2.57143V21.4286C0.333344 22.1106 0.604261 22.7646 1.0865 23.2468C1.56873 23.7291 2.22279 24 2.90477 24H20.9048C21.8141 24 22.6862 23.6388 23.3291 22.9958C23.9721 22.3528 24.3333 21.4807 24.3333 20.5714V10.2857C24.3333 9.60373 24.0624 8.94968 23.5802 8.46744C23.098 7.9852 22.4439 7.71429 21.7619 7.71429ZM2.04763 21.4286V2.57143C2.04763 2.3441 2.13794 2.12608 2.29868 1.96534C2.45943 1.80459 2.67744 1.71429 2.90477 1.71429H16.6191C16.8464 1.71429 17.0644 1.80459 17.2252 1.96534C17.3859 2.12608 17.4762 2.3441 17.4762 2.57143V20.5714C17.4787 21.1757 17.6446 21.768 17.9562 22.2857H2.90477C2.67744 22.2857 2.45943 22.1954 2.29868 22.0347C2.13794 21.8739 2.04763 21.6559 2.04763 21.4286ZM22.6191 20.5714C22.6191 21.0261 22.4384 21.4621 22.117 21.7836C21.7955 22.1051 21.3594 22.2857 20.9048 22.2857C20.4501 22.2857 20.0141 22.1051 19.6926 21.7836C19.3711 21.4621 19.1905 21.0261 19.1905 20.5714V9.42857H21.7619C21.9892 9.42857 22.2073 9.51888 22.368 9.67962C22.5288 9.84037 22.6191 10.0584 22.6191 10.2857V20.5714Z" fill="#7B78AA"/>
<path d="M14.0476 3.42857H5.4762C5.02154 3.42857 4.58551 3.60918 4.26402 3.93067C3.94253 4.25216 3.76192 4.6882 3.76192 5.14286V9.42857C3.76192 9.88323 3.94253 10.3193 4.26402 10.6408C4.58551 10.9622 5.02154 11.1429 5.4762 11.1429H14.0476C14.5023 11.1429 14.9383 10.9622 15.2598 10.6408C15.5813 10.3193 15.7619 9.88323 15.7619 9.42857V5.14286C15.7619 4.6882 15.5813 4.25216 15.2598 3.93067C14.9383 3.60918 14.5023 3.42857 14.0476 3.42857ZM5.4762 9.42857V5.14286H14.0476V9.42857H5.4762Z" fill="#7B78AA"/>
<path d="M14.9048 13.7143H4.61906C4.39173 13.7143 4.17371 13.8046 4.01297 13.9653C3.85222 14.1261 3.76192 14.3441 3.76192 14.5714C3.76192 14.7988 3.85222 15.0168 4.01297 15.1775C4.17371 15.3383 4.39173 15.4286 4.61906 15.4286H14.9048C15.1321 15.4286 15.3501 15.3383 15.5109 15.1775C15.6716 15.0168 15.7619 14.7988 15.7619 14.5714C15.7619 14.3441 15.6716 14.1261 15.5109 13.9653C15.3501 13.8046 15.1321 13.7143 14.9048 13.7143Z" fill="#7B78AA"/>
<path d="M13.1905 17.1429H4.61906C4.39173 17.1429 4.17371 17.2332 4.01297 17.3939C3.85222 17.5547 3.76192 17.7727 3.76192 18C3.76192 18.2273 3.85222 18.4453 4.01297 18.6061C4.17371 18.7668 4.39173 18.8571 4.61906 18.8571H13.1905C13.4178 18.8571 13.6358 18.7668 13.7966 18.6061C13.9573 18.4453 14.0476 18.2273 14.0476 18C14.0476 17.7727 13.9573 17.5547 13.7966 17.3939C13.6358 17.2332 13.4178 17.1429 13.1905 17.1429Z" fill="#7B78AA"/>
</svg>
