<svg width="24" height="24" viewBox="0 0 24 24" fill="none" xmlns="http://www.w3.org/2000/svg">
<path d="M12.0001 7.28646C11.0677 7.28646 10.1562 7.56293 9.38097 8.08092C8.60572 8.5989 8.00149 9.33513 7.64468 10.1965C7.28787 11.0579 7.19452 12.0057 7.37642 12.9201C7.55831 13.8346 8.0073 14.6745 8.6666 15.3338C9.32589 15.9931 10.1659 16.442 11.0804 16.6239C11.9948 16.8058 12.9427 16.7125 13.8041 16.3557C14.6655 15.9989 15.4018 15.3947 15.9198 14.6194C16.4378 13.8442 16.7143 12.9328 16.7143 12.0005C16.712 10.7509 16.2146 9.55322 15.331 8.66967C14.4474 7.78611 13.2496 7.28873 12.0001 7.28646ZM12.0001 15.0003C11.4067 15.0003 10.8267 14.8244 10.3334 14.4947C9.84002 14.1651 9.45551 13.6966 9.22845 13.1485C9.00139 12.6003 8.94198 11.9971 9.05774 11.4152C9.17349 10.8333 9.45921 10.2988 9.87876 9.87928C10.2983 9.45974 10.8329 9.17404 11.4148 9.05829C11.9967 8.94254 12.5999 9.00195 13.1481 9.229C13.6963 9.45605 14.1648 9.84054 14.4944 10.3339C14.8241 10.8272 15 11.4072 15 12.0005C15 12.7961 14.6839 13.5591 14.1213 14.1217C13.5587 14.6843 12.7957 15.0003 12.0001 15.0003Z" fill="#7B78AA"/>
<path d="M23.417 9.47205L20.7856 8.61495C20.7342 8.47782 20.6828 8.34926 20.6228 8.21212L21.8571 5.71798C21.9384 5.55629 21.9664 5.37301 21.9371 5.19441C21.9079 5.01581 21.8228 4.85106 21.6942 4.72375L19.2771 2.30675C19.1498 2.17811 18.985 2.09307 18.8064 2.06382C18.6278 2.03457 18.4445 2.0626 18.2828 2.1439L15.8057 3.37811L15.4286 3.21527L14.5714 0.583989C14.5118 0.406587 14.3957 0.253581 14.241 0.148341C14.0862 0.0431001 13.9012 -0.00858986 13.7143 0.00116561H10.2858C10.1061 0.000701785 9.93081 0.0567215 9.78469 0.161307C9.63857 0.265892 9.52902 0.413752 9.47152 0.583989L8.57153 3.21527L8.16868 3.37811L5.71728 2.1439C5.55558 2.0626 5.3723 2.03457 5.19369 2.06382C5.01508 2.09307 4.85032 2.17811 4.72301 2.30675L2.3059 4.72375C2.17726 4.85106 2.09222 5.01581 2.06296 5.19441C2.03371 5.37301 2.06174 5.55629 2.14304 5.71798L3.37731 8.19498C3.32589 8.33211 3.26589 8.46068 3.21446 8.59781L0.583066 9.45491C0.410007 9.51331 0.260127 9.62546 0.155282 9.77501C0.0504369 9.92456 -0.003892 10.1037 0.00021704 10.2863V13.7147C-0.000246807 13.8943 0.0557754 14.0696 0.160365 14.2157C0.264955 14.3619 0.412822 14.4714 0.583066 14.5289L3.21446 15.386C3.26589 15.5231 3.32589 15.6517 3.37731 15.7888L2.14304 18.283C2.06174 18.4447 2.03371 18.6279 2.06296 18.8065C2.09222 18.9851 2.17726 19.1499 2.3059 19.2772L4.72301 21.6942C4.85032 21.8228 5.01508 21.9079 5.19369 21.9371C5.3723 21.9664 5.55558 21.9384 5.71728 21.857L8.19439 20.6228L8.59724 20.7857L9.45437 23.417C9.51278 23.59 9.62493 23.7399 9.77449 23.8447C9.92405 23.9496 10.1032 24.0039 10.2858 23.9998H13.7143C13.894 24.0002 14.0693 23.9442 14.2154 23.8396C14.3615 23.7351 14.4711 23.5872 14.5286 23.417L15.3857 20.7857L15.7886 20.6228L18.2657 21.857C18.4274 21.9384 18.6107 21.9664 18.7893 21.9371C18.9679 21.9079 19.1326 21.8228 19.26 21.6942L21.6771 19.2772C21.8057 19.1499 21.8907 18.9851 21.92 18.8065C21.9493 18.6279 21.9212 18.4447 21.8399 18.283L20.6057 15.806C20.6657 15.6688 20.7171 15.5403 20.7685 15.4031L23.3999 14.546C23.5762 14.4906 23.7298 14.3798 23.8379 14.23C23.946 14.0801 24.0029 13.8994 23.9999 13.7147V10.2863C24.0004 10.1066 23.9443 9.93132 23.8397 9.78521C23.7352 9.63909 23.5873 9.52955 23.417 9.47205ZM22.2856 13.0976L19.8514 13.9118C19.7258 13.9539 19.6116 14.0246 19.5179 14.1183C19.4242 14.212 19.3535 14.3261 19.3114 14.4518C19.1959 14.7862 19.0585 15.1126 18.9 15.4288C18.8411 15.5474 18.8104 15.6779 18.8104 15.8103C18.8104 15.9426 18.8411 16.0731 18.9 16.1917L20.0485 18.4887L18.4971 20.04L16.2 18.9001C16.0815 18.8412 15.9509 18.8105 15.8186 18.8105C15.6862 18.8105 15.5557 18.8412 15.4372 18.9001C15.1181 19.059 14.7888 19.1964 14.4515 19.3115C14.3258 19.3536 14.2117 19.4243 14.118 19.518C14.0243 19.6117 13.9536 19.7258 13.9115 19.8515L13.0972 22.2856H10.9029L10.0458 19.8515C10.0037 19.7258 9.93295 19.6117 9.83926 19.518C9.74557 19.4243 9.63142 19.3536 9.5058 19.3115C9.18596 19.1943 8.8739 19.0569 8.57153 18.9001C8.45301 18.8412 8.32246 18.8105 8.19011 18.8105C8.05776 18.8105 7.92721 18.8412 7.80868 18.9001L5.503 20.0486L3.95159 18.4972L5.143 16.2002C5.20329 16.0806 5.23469 15.9485 5.23469 15.8145C5.23469 15.6806 5.20329 15.5485 5.143 15.4288C4.98412 15.1098 4.84667 14.7805 4.73158 14.4432C4.68944 14.3176 4.61874 14.2034 4.52505 14.1097C4.43135 14.0161 4.31721 13.9454 4.19159 13.9032L1.71448 13.0976V10.9034L4.14873 10.0463C4.27435 10.0042 4.38849 9.93347 4.48219 9.83978C4.57588 9.74609 4.64658 9.63195 4.68872 9.50633C4.82122 9.18607 4.97292 8.87409 5.143 8.5721C5.2019 8.45358 5.23255 8.32304 5.23255 8.19069C5.23255 8.05835 5.2019 7.9278 5.143 7.80929L3.95159 5.50371L5.503 3.95237L7.80011 5.14373C7.91975 5.20401 8.05185 5.23541 8.18582 5.23541C8.31979 5.23541 8.45189 5.20401 8.57153 5.14373C8.89127 4.98633 9.22047 4.84894 9.55723 4.73232C9.68285 4.69018 9.79699 4.61949 9.89069 4.5258C9.98438 4.43211 10.0551 4.31797 10.0972 4.19235L10.9544 1.75821H13.1486L13.9629 4.19235C14.005 4.31797 14.0757 4.43211 14.1694 4.5258C14.2631 4.61949 14.3773 4.69018 14.5029 4.73232C14.8198 4.84982 15.129 4.98723 15.4286 5.14373C15.5471 5.20262 15.6777 5.23327 15.81 5.23327C15.9424 5.23327 16.0729 5.20262 16.1914 5.14373L18.4885 3.99522L20.0399 5.54656L18.9 7.80072C18.8411 7.91923 18.8104 8.04978 18.8104 8.18212C18.8104 8.31447 18.8411 8.44501 18.9 8.56353C19.0574 8.88326 19.1948 9.21244 19.3114 9.54919C19.3535 9.6748 19.4242 9.78894 19.5179 9.88263C19.6116 9.97632 19.7258 10.047 19.8514 10.0892L22.2856 10.9462V13.0976Z" fill="#7B78AA"/>
</svg>
