<svg width="25" height="24" viewBox="0 0 25 24" fill="none" xmlns="http://www.w3.org/2000/svg">
<path d="M9.66667 1.71428L9.66667 22.2857L7.95239 22.2857L7.95239 7.71428C7.95239 7.25963 7.77177 6.82359 7.45028 6.5021C7.12879 6.18061 6.69276 6 6.2381 6L3.66667 6C3.21201 6 2.77598 6.18061 2.45449 6.5021C2.133 6.82359 1.95239 7.25963 1.95239 7.71428L1.95239 22.2857L1.52381 22.2857C1.29649 22.2857 1.07847 22.376 0.917723 22.5368C0.756978 22.6975 0.666672 22.9155 0.666672 23.1429C0.666672 23.3702 0.756978 23.5882 0.917723 23.7489C1.07847 23.9097 1.29649 24 1.52381 24L23.8095 24C24.0369 24 24.2549 23.9097 24.4156 23.7489C24.5764 23.5882 24.6667 23.3702 24.6667 23.1429C24.6667 22.9155 24.5764 22.6975 24.4156 22.5368C24.2549 22.376 24.0369 22.2857 23.8095 22.2857L23.381 22.2857L23.381 13.7143C23.381 13.2596 23.2003 12.8236 22.8789 12.5021C22.5574 12.1806 22.1213 12 21.6667 12L19.0952 12C18.6406 12 18.2046 12.1806 17.8831 12.5021C17.5616 12.8236 17.381 13.2596 17.381 13.7143L17.381 22.2857L15.6667 22.2857L15.6667 1.71428C15.6667 1.25963 15.4861 0.823592 15.1646 0.502101C14.8431 0.180612 14.407 -6.00611e-07 13.9524 -5.80737e-07L11.381 -4.68336e-07C10.9263 -4.48463e-07 10.4903 0.180612 10.1688 0.502101C9.84728 0.823593 9.66667 1.25963 9.66667 1.71428ZM3.66667 7.71428L6.2381 7.71428L6.2381 22.2857L3.66667 22.2857L3.66667 7.71428ZM19.0952 13.7143L21.6667 13.7143L21.6667 22.2857L19.0952 22.2857L19.0952 13.7143ZM13.9524 22.2857L11.381 22.2857L11.381 1.71428L13.9524 1.71428L13.9524 22.2857Z" fill="#7B78AA"/>
</svg>
