<svg width="24" height="24" viewBox="0 0 24 24" fill="none" xmlns="http://www.w3.org/2000/svg">
<path d="M4.28571 6V3.42857C4.28571 3.20124 4.19541 2.98323 4.03466 2.82248C3.87392 2.66173 3.6559 2.57143 3.42857 2.57143C3.20124 2.57143 2.98323 2.66173 2.82248 2.82248C2.66173 2.98323 2.57143 3.20124 2.57143 3.42857V6C1.88944 6 1.23539 6.27092 0.753154 6.75315C0.270918 7.23539 0 7.88944 0 8.57143V16.2857C0 16.9677 0.270918 17.6218 0.753154 18.104C1.23539 18.5862 1.88944 18.8571 2.57143 18.8571V23.1429C2.57143 23.3702 2.66173 23.5882 2.82248 23.749C2.98323 23.9097 3.20124 24 3.42857 24C3.6559 24 3.87392 23.9097 4.03466 23.749C4.19541 23.5882 4.28571 23.3702 4.28571 23.1429V18.8571C4.9677 18.8571 5.62175 18.5862 6.10399 18.104C6.58623 17.6218 6.85714 16.9677 6.85714 16.2857V8.57143C6.85714 7.88944 6.58623 7.23539 6.10399 6.75315C5.62175 6.27092 4.9677 6 4.28571 6ZM5.14286 16.2857C5.14286 16.513 5.05255 16.7311 4.89181 16.8918C4.73106 17.0526 4.51304 17.1429 4.28571 17.1429H2.57143C2.3441 17.1429 2.12608 17.0526 1.96534 16.8918C1.80459 16.7311 1.71429 16.513 1.71429 16.2857V8.57143C1.71429 8.3441 1.80459 8.12608 1.96534 7.96534C2.12608 7.80459 2.3441 7.71429 2.57143 7.71429H4.28571C4.51304 7.71429 4.73106 7.80459 4.89181 7.96534C5.05255 8.12608 5.14286 8.3441 5.14286 8.57143V16.2857Z" fill="#7B78AA"/>
<path d="M12.8571 3.42857V0.857143C12.8571 0.629814 12.7668 0.411797 12.6061 0.251051C12.4453 0.0903058 12.2273 0 12 0C11.7727 0 11.5547 0.0903058 11.3939 0.251051C11.2332 0.411797 11.1429 0.629814 11.1429 0.857143V3.42857C10.4609 3.42857 9.80682 3.69949 9.32458 4.18173C8.84235 4.66396 8.57143 5.31802 8.57143 6V11.1429C8.57143 11.8248 8.84235 12.4789 9.32458 12.9611C9.80682 13.4434 10.4609 13.7143 11.1429 13.7143V19.7143C11.1429 19.9416 11.2332 20.1596 11.3939 20.3204C11.5547 20.4811 11.7727 20.5714 12 20.5714C12.2273 20.5714 12.4453 20.4811 12.6061 20.3204C12.7668 20.1596 12.8571 19.9416 12.8571 19.7143V13.7143C13.5391 13.7143 14.1932 13.4434 14.6754 12.9611C15.1577 12.4789 15.4286 11.8248 15.4286 11.1429V6C15.4286 5.31802 15.1577 4.66396 14.6754 4.18173C14.1932 3.69949 13.5391 3.42857 12.8571 3.42857ZM13.7143 11.1429C13.7143 11.3702 13.624 11.5882 13.4632 11.7489C13.3025 11.9097 13.0845 12 12.8571 12H11.1429C10.9155 12 10.6975 11.9097 10.5368 11.7489C10.376 11.5882 10.2857 11.3702 10.2857 11.1429V6C10.2857 5.77267 10.376 5.55465 10.5368 5.39391C10.6975 5.23316 10.9155 5.14286 11.1429 5.14286H12.8571C13.0845 5.14286 13.3025 5.23316 13.4632 5.39391C13.624 5.55465 13.7143 5.77267 13.7143 6V11.1429Z" fill="#7B78AA"/>
<path d="M21.4286 12V4.28571C21.4286 4.05839 21.3383 3.84037 21.1775 3.67962C21.0168 3.51888 20.7988 3.42857 20.5714 3.42857C20.3441 3.42857 20.1261 3.51888 19.9653 3.67962C19.8046 3.84037 19.7143 4.05839 19.7143 4.28571V12C19.0323 12 18.3782 12.2709 17.896 12.7532C17.4138 13.2354 17.1429 13.8894 17.1429 14.5714V18.8571C17.1429 19.5391 17.4138 20.1932 17.896 20.6754C18.3782 21.1577 19.0323 21.4286 19.7143 21.4286V23.1429C19.7143 23.3702 19.8046 23.5882 19.9653 23.749C20.1261 23.9097 20.3441 24 20.5714 24C20.7988 24 21.0168 23.9097 21.1775 23.749C21.3383 23.5882 21.4286 23.3702 21.4286 23.1429V21.4286C22.1106 21.4286 22.7646 21.1577 23.2468 20.6754C23.7291 20.1932 24 19.5391 24 18.8571V14.5714C24 13.8894 23.7291 13.2354 23.2468 12.7532C22.7646 12.2709 22.1106 12 21.4286 12ZM22.2857 18.8571C22.2857 19.0845 22.1954 19.3025 22.0347 19.4632C21.8739 19.624 21.6559 19.7143 21.4286 19.7143H19.7143C19.487 19.7143 19.2689 19.624 19.1082 19.4632C18.9474 19.3025 18.8571 19.0845 18.8571 18.8571V14.5714C18.8571 14.3441 18.9474 14.1261 19.1082 13.9653C19.2689 13.8046 19.487 13.7143 19.7143 13.7143H21.4286C21.6559 13.7143 21.8739 13.8046 22.0347 13.9653C22.1954 14.1261 22.2857 14.3441 22.2857 14.5714V18.8571Z" fill="#7B78AA"/>
</svg>
